<?xml version="1.0" encoding="UTF-8" standalone="no"?>
<!-- Created with Inkscape (http://www.inkscape.org/) -->

<svg
   version="1.1"
   id="svg267"
   xml:space="preserve"
   width="682.66669"
   height="682.66669"
   viewBox="0 0 682.66669 682.66669"
   xmlns="http://www.w3.org/2000/svg"
   xmlns:svg="http://www.w3.org/2000/svg"><defs
     id="defs271"><clipPath
       clipPathUnits="userSpaceOnUse"
       id="clipPath281"><path
         d="M 0,512 H 512 V 0 H 0 Z"
         id="path279" /></clipPath></defs><g
     id="g273"
     transform="matrix(1.3333333,0,0,-1.3333333,0,682.66667)"><g
       id="g275"><g
         id="g277"
         clip-path="url(#clipPath281)"><g
           id="g283"
           transform="translate(162.1914,342.1162)"><path
             d="m 0,0 c 62.78,-76.371 131.298,-141.479 211.61,-207.193 69.302,-56.705 52.077,-135.534 -31.239,-121.263 -141.023,24.155 -422.616,315.398 -304.176,391.331 20.793,13.331 39.939,13.879 61.021,1.198"
             style="fill:none;stroke:#000000;stroke-width:20;stroke-linecap:round;stroke-linejoin:round;stroke-miterlimit:22.926;stroke-dasharray:none;stroke-opacity:1"
             id="path285" /></g><g
           id="g287"
           transform="translate(469.5332,138.2178)"><path
             d="M 0,0 C 72.6,-72.867 -12.428,-141.392 -61.162,-106.405 M -445.87,254.387 c -22.855,42.491 0.452,124.04 75.324,97.084 12.297,-4.428 25.492,-13.025 40.285,-25.315"
             style="fill:none;stroke:#000000;stroke-width:20;stroke-linecap:round;stroke-linejoin:round;stroke-miterlimit:22.926;stroke-dasharray:none;stroke-opacity:1"
             id="path289" /></g><g
           id="g291"
           transform="translate(487.8027,115.0776)"><path
             d="m 0,0 c 56.157,79.655 -67.502,150.902 -140.74,221.089 -73.252,70.2 -148.558,213.441 -233.146,146.497"
             style="fill:none;stroke:#000000;stroke-width:20;stroke-linecap:round;stroke-linejoin:round;stroke-miterlimit:22.926;stroke-dasharray:none;stroke-opacity:1"
             id="path293" /></g><g
           id="g295"
           transform="translate(130.3965,425.2466)"><path
             d="m 0,0 c -10.798,2.022 -17.912,12.415 -15.89,23.212 2.022,10.797 12.414,17.912 23.212,15.89 28.364,-5.374 45.613,-11.57 59.004,-23.528 13.547,-12.097 20.612,-27.586 28.968,-51.872 6.233,-18.117 13.9,-19.362 22.207,-20.711 11.8,-1.915 24.171,-3.924 37.891,-16.097 10.628,-9.432 13.261,-20.987 16.142,-33.63 1.847,-8.107 3.879,-17.025 8.927,-21.896 9.66,-9.322 19.464,-11.429 28.269,-13.321 14.293,-3.071 27.078,-5.819 39.668,-21.372 10.045,-12.408 12.479,-21.98 14.767,-30.98 1.464,-5.756 2.802,-11.017 11.515,-17.049 5.682,-3.934 11.521,-6.42 16.847,-8.689 20.802,-8.859 36.577,-15.577 47.087,-59.903 2.538,-10.711 -4.088,-21.452 -14.8,-23.991 -10.71,-2.538 -21.452,4.088 -23.99,14.8 -5.886,24.823 -13.644,28.128 -23.875,32.485 -7.043,2.999 -14.764,6.287 -23.857,12.583 -21.121,14.622 -24.196,26.716 -27.562,39.95 -1.273,5.011 -2.629,10.342 -6.976,15.713 -3.761,4.644 -10.049,5.996 -17.08,7.507 -14.079,3.026 -29.754,6.395 -47.586,23.603 -13.602,13.125 -17.029,28.165 -20.144,41.837 -1.393,6.11 -2.666,11.697 -3.681,12.597 -5.077,4.505 -11.666,5.575 -17.949,6.595 -20.565,3.339 -39.544,6.421 -53.52,47.039 -6.218,18.074 -10.882,29.069 -17.75,35.203 C 32.82,-7.754 20.964,-3.972 0,0 Z"
             style="fill:none;stroke:#000000;stroke-width:20;stroke-linecap:round;stroke-linejoin:round;stroke-miterlimit:22.926;stroke-dasharray:none;stroke-opacity:1"
             id="path297" /></g><g
           id="g299"
           transform="translate(133.3828,376.688)"><path
             d="M 0,0 H 0.008"
             style="fill:none;stroke:#000000;stroke-width:20;stroke-linecap:round;stroke-linejoin:round;stroke-miterlimit:2.613;stroke-dasharray:none;stroke-opacity:1"
             id="path301" /></g></g></g></g></svg>
