<?xml version="1.0" encoding="UTF-8"?>
<!DOCTYPE svg PUBLIC "-//W3C//DTD SVG 1.0//EN" "http://www.w3.org/TR/2001/REC-SVG-20010904/DTD/svg10.dtd">
<!-- Creator: CorelDRAW X8 -->
<svg xmlns="http://www.w3.org/2000/svg" xml:space="preserve" width="2241px" height="1891px" version="1.0" style="shape-rendering:geometricPrecision; text-rendering:geometricPrecision; image-rendering:optimizeQuality; fill-rule:evenodd; clip-rule:evenodd"
viewBox="0 0 27034 22822"
 xmlns:xlink="http://www.w3.org/1999/xlink">
 <defs>
  <style type="text/css">
   <![CDATA[
    .fil0 {fill:#216053}
    .fil1 {fill:#6BBCA3}
    .fil5 {fill:#7BA44A}
    .fil2 {fill:#E86F4B}
    .fil3 {fill:#FBC03B}
    .fil4 {fill:#FDEFD7}
   ]]>
  </style>
 </defs>
 <g id="Capa_x0020_1">
  <metadata id="CorelCorpID_0Corel-Layer"/>
  <g id="_2706676811984">
   <path class="fil0" d="M15975 20817c658,226 1069,-261 1068,500 -1,582 -226,434 -1075,417 -1069,-22 -929,317 -906,-2302 5,-528 -6,-1060 3,-1586 5,-266 60,-438 334,-459 770,-57 553,412 552,1818 -1,368 -44,1311 24,1612zm2036 970c-325,76 -456,22 -679,-116 -51,-332 537,-2676 643,-3177 145,-686 77,-1056 859,-1021 595,26 573,326 731,1191 95,518 218,1044 318,1558 58,298 397,1406 199,1593 -141,134 -630,87 -727,-75 -42,-70 -90,-279 -110,-379 -78,-401 -6,-306 -149,-344 -55,-14 -367,-19 -449,-23 -157,-9 -313,-43 -381,60 -121,186 3,551 -255,733zm8490 -1337c-131,1243 -794,1732 -2012,1732 -973,1 -850,-108 -847,-1016l4 -2790c1,-295 -58,-687 190,-763 313,-95 1306,146 1572,260 953,411 1196,1592 1093,2577zm-24102 -540c-4,-249 -69,-1881 63,-2030 112,-128 418,-163 586,-90 290,127 190,859 194,1189l7 2827c-18,188 -93,300 -379,333 -641,75 -537,-442 -948,-1148 -108,-184 -381,-843 -502,-930 -87,1479 322,2318 -573,2231 -440,-42 -292,-758 -296,-1088 -7,-746 -38,-2145 -10,-2831 20,-471 630,-570 884,-351 239,204 708,1678 974,1888zm19865 -99c65,-119 42,-937 41,-1096 -1,-417 -61,-727 150,-972 584,-118 697,37 695,557l-11 2565c-2,404 66,907 -128,1159 -162,25 -321,36 -485,12 -315,-44 -358,-407 -567,-903 -83,-197 -523,-1266 -615,-1304 -127,1239 342,2392 -641,2102 -303,-89 -206,-668 -197,-1180 8,-477 0,-955 -8,-1433 -7,-399 -37,-1003 9,-1385 60,-504 740,-376 908,-102 224,365 661,1701 849,1980zm-8208 162c157,798 1094,1761 176,1744 -554,-11 -540,-379 -857,-1163 -81,-203 -73,-408 -309,-331 -98,306 67,1252 -121,1430 -102,97 -533,116 -670,34 -167,-100 -110,-454 -110,-672 0,-1044 13,-2088 13,-3131 0,-277 -9,-445 219,-510 328,-93 1600,-103 1964,381 655,868 216,2045 -305,2218zm-9337 -572c255,69 615,-67 914,1 113,153 179,671 0,783 -250,157 -694,-24 -900,158 -61,69 -47,458 -35,557 71,619 1228,-349 1326,475 78,669 -287,569 -1107,623 -217,14 -620,64 -828,30 -325,-53 -267,-301 -269,-636 -3,-394 -46,-3335 6,-3471 85,-221 402,-184 663,-205 1036,-84 1295,-244 1348,230 32,285 28,555 -246,604 -166,29 -706,23 -815,66 -167,67 -92,643 -57,785zm5810 -259c237,124 696,-79 908,106 173,151 112,611 -5,772 -294,81 -635,-22 -919,67 -61,202 -58,553 3,724 223,82 587,32 851,28 368,-7 445,70 462,440 27,594 -217,474 -1293,483 -1131,9 -947,275 -927,-2632 14,-2037 -240,-1761 1759,-1757 343,1 431,39 442,398 10,343 4,520 -340,537 -148,7 -807,-8 -889,30 -153,70 -115,679 -52,804zm-2776 1583l566 -2947c99,-362 413,-372 801,-252 95,415 -420,2905 -541,3498 -64,317 -99,555 -304,710 -183,137 -646,164 -905,115 -425,-81 -444,-774 -620,-1421l-572 -2478c-33,-353 294,-452 620,-367 266,68 273,405 336,684l545 2362c50,98 7,38 74,96zm-3647 -3745c-10,-81 78,17 35,18 -66,2 -27,42 -35,-18zm1285 -37l80 -15c-49,58 4,99 -80,15zm-553 -109c74,-48 77,-57 198,-43 -21,160 0,66 -92,182 -5,-5 -44,-37 -51,-46 -30,-38 -55,-93 -55,-93zm1539 -118c-9,10 -12,18 -52,47 -36,27 -34,16 -69,44l-95 106 -218 -175c-4,-13 -15,-14 -22,-22 135,-120 122,-45 203,-229l253 229zm-2402 -37c61,-37 -106,-83 150,-52 99,12 48,9 99,89 -59,39 -26,133 -249,-37zm12292 -189c-317,687 -1401,369 -1194,-324 72,-240 423,-493 762,-374 160,56 187,192 240,324 52,131 132,258 192,374zm-8105 110l-40 90c-69,-49 -25,91 -69,-85 -14,-37 -11,-25 -31,-55l91 -196 140 98 -91 148zm-1322 -354c51,56 82,94 114,134l-122 109 -107 -98c40,-116 27,-88 115,-145zm3174 -6c247,-82 158,-125 294,-277 112,299 73,131 256,301 -322,128 -110,12 -292,244 -159,-269 14,-97 -258,-268zm2283 -49c-117,244 -156,382 -447,450 -1081,250 -1187,-1156 -258,-1121 129,190 106,230 301,405 133,120 291,155 404,266zm4542 -1145c425,-120 807,172 911,456 161,441 -163,809 -454,920 -950,360 -1360,-1120 -457,-1376zm4274 38c420,-112 786,197 835,550 64,469 -202,770 -553,855 -920,224 -1256,-1143 -282,-1405zm-6561 809c-4,720 -792,725 -1055,463 -348,-349 46,-557 240,-1038l80 -153 160 5c155,359 125,406 575,723zm-5564 -1000c476,-190 822,151 946,461 168,416 -135,827 -442,921 -937,284 -1457,-1001 -504,-1382zm10056 -170c946,-292 1416,1128 443,1441 -992,320 -1423,-1139 -443,-1441zm-11715 -127c871,-216 1134,1198 296,1350 -937,170 -1192,-1128 -296,-1350zm5085 -269c951,-302 1458,1175 449,1509 -436,144 -884,-144 -990,-493 -162,-529 139,-888 541,-1016zm2394 -103c922,-289 1225,1201 316,1391 -782,164 -1341,-1069 -316,-1391zm-4301 -312c1119,-259 1350,1236 490,1490 -1055,311 -1437,-1270 -490,-1490zm11045 844c242,-1185 1819,-650 1425,337 -112,280 -348,386 -689,432 -35,-390 -432,-628 -736,-769zm-1173 364c-203,-148 31,-138 -572,-623 -434,-350 491,-1365 1180,-727 284,263 228,501 154,923 -166,71 -274,102 -418,181 -111,60 -235,212 -344,246zm-4614 -930c314,-398 804,-375 1048,-166l146 152c89,120 119,282 109,466 -139,84 -368,35 -659,252 -316,234 -246,449 -405,432 -67,-201 210,-531 -239,-1136zm-7342 632c-334,-431 -527,-424 -537,-669 -16,-359 236,-630 484,-736 351,-150 697,6 884,206 234,251 244,489 132,858 -201,56 -350,21 -562,107 -180,74 -280,187 -401,234zm8797 -943c124,-116 147,-169 312,-239 871,-371 1427,880 622,1342 -197,112 -260,76 -390,-24 -98,-76 -245,-157 -354,-212 39,-575 -158,-651 -190,-867zm-4278 84c-126,-1095 1397,-1127 1533,-209 43,283 -158,342 -280,475 -64,69 -360,681 -626,247 -227,-370 -375,-319 -627,-513zm-1718 -342c93,-1022 1274,-861 1437,-349 30,95 -114,415 -97,689 -246,42 -590,180 -735,295 -104,-279 -330,-543 -605,-635zm7207 -193c80,-1102 1028,-883 1299,-514 370,506 -46,633 -139,755 -232,302 -45,533 -683,504 -84,-157 -100,-523 -477,-745zm-12997 195l-241 15 -81 -366c6,7 14,18 18,23 3,5 13,17 17,22 165,198 94,7 287,306zm15413 -338c24,-636 854,-855 1256,-405 147,165 283,508 117,776 -82,130 -197,94 -353,173 -133,68 -205,156 -319,209 -123,-135 -142,-308 -298,-456 -132,-124 -281,-184 -403,-297zm-3900 421c-603,-123 -832,-1151 -188,-1515 345,-195 752,-84 961,133 224,232 267,522 195,915 -838,126 -679,266 -968,467zm-2515 -683c198,-784 1179,-841 1527,-223 203,362 59,767 -169,950 -484,389 -331,106 -966,97 -25,-542 -253,-619 -392,-824zm-4575 876c-201,-118 -363,-464 -277,-822 141,-583 884,-845 1359,-307 142,161 131,195 53,362 -63,134 -87,251 -123,405 -743,31 -716,266 -1012,362zm-1671 -852c-14,-501 -43,-3442 26,-3742l1666 2c50,203 41,2596 6,2884 -63,117 -540,167 -698,917 -494,-135 -470,-97 -1000,-61zm2884 -687c-262,-159 -404,-256 -783,-244 -60,-66 -62,101 -50,-114l17 -1465 884 12 -14 1866 -54 -55zm4847 -1811l840 8 -13 1219c-259,169 -449,187 -635,596l-190 -127 -2 -1696zm1207 -1742l1723 -2 -5 3461c-218,159 -196,29 -543,405 -185,-341 -94,-403 -406,-672 -234,-202 -431,-224 -781,-277l12 -2915zm-5637 726l4068 4 7 2511c-421,-54 -460,-38 -845,64 -16,-534 55,-876 -277,-1263 -210,-245 -588,-511 -1108,-421 -1084,189 -1026,1239 -988,2117 -498,-14 -375,-40 -869,57l12 -3069zm-3510 -599c53,-154 1048,-1540 1088,-1584 53,73 64,119 116,196 310,456 643,901 941,1392l-2145 -4zm9705 -1894c85,-144 189,-289 261,-454 293,533 842,1403 1073,1855l-2135 -7 801 -1394zm-4445 1020c8,-378 -151,-1197 276,-1201 280,-3 285,220 282,465 -2,221 14,517 -10,725l36 331c184,50 1068,52 1240,4 49,-186 35,-455 30,-677l695 1 -8 1458 -4543 7 20 -1469 738 15 -4 512c3,12 6,23 8,34l40 92c150,93 975,80 1188,21l12 -318zm-394 -55c-46,44 39,32 -118,53l-369 -29 -8 -451c-18,-241 -156,-261 -421,-263l2 -1506 3206 8 -13 1495 -257 16c-234,270 -116,319 -159,701l-501 -2c-78,-395 227,-1558 -690,-1558 -781,-1 -705,847 -672,1536zm672 -5507c164,165 404,513 559,723 183,248 334,477 521,725 153,201 1000,1319 1020,1484l-4195 -9 2095 -2923zm781 -1042l-612 -25c-50,-166 -50,-602 -2,-770 99,-12 305,-39 347,42 219,15 486,158 703,239 270,100 494,125 804,131 -297,386 -680,342 -1240,383zm-3223 8075c115,73 66,500 50,647 -145,26 -288,16 -436,15 -109,-1 -354,43 -425,-38l11 -833c470,-36 348,-298 179,-554l-1160 -1780c-263,-424 -457,-15 -648,296l-1052 1512c-138,194 -232,527 237,508l-12 3871c-2,387 -356,448 -268,1035 -693,97 -1135,324 -1128,1183 -686,173 -987,928 -1034,965 -179,58 -337,39 -557,69l155 -496 159 20c176,-734 -261,-860 142,-1129 188,-126 307,-282 339,-528 210,99 150,145 310,240 259,27 871,-173 712,-408 -135,-165 -397,52 -566,50 -130,-2 -351,-232 -357,-350 121,-73 232,-16 416,-11 60,-96 91,-102 152,-215 98,-176 14,-63 161,-202 -182,-684 162,-303 143,-592 -16,-251 -452,-346 -538,-378l276 19c-38,-145 -205,-282 -403,-284 -136,-2 -152,57 -245,117 -124,81 -46,-5 -217,12 -136,149 -141,314 -314,476 -3,-272 -93,-1132 -464,-1184 -162,222 -115,629 -143,932 -63,-252 -641,-859 -875,-1080 -123,-115 -35,-89 -199,-116 -273,778 414,2187 896,2399 -184,-4 -399,-88 -469,139 -86,279 53,346 211,445 -98,79 -364,197 -504,273 -413,227 -330,-10 -645,72 -54,210 -7,192 185,235 -99,304 -57,272 706,-95 215,-103 802,-352 929,-466l15 197c-484,76 -715,227 -964,587 -215,311 -91,143 -398,355 -303,210 -99,301 236,272 14,96 -36,15 19,175l199 46c-186,114 -416,109 -742,398l21 54 239 14c48,109 62,115 41,219 -12,64 -16,91 -48,143 -73,117 -24,36 -84,78 309,-65 77,-13 162,45 -10,6 -25,11 -33,14 -7,2 -22,8 -30,11 -7,2 -20,5 -27,7 -171,54 15,4 -182,100 50,103 10,52 -145,123 -114,52 -108,61 -245,90 -226,90 -437,-37 -726,337 -63,81 -70,137 -146,214 -204,-191 -406,-416 -876,-382 -1340,96 -1040,1024 -1042,2804 0,428 2,855 1,1283 -2,462 -27,711 232,1036 306,382 1061,356 1385,29 132,-134 162,-281 262,-385 129,244 312,441 708,465 474,29 643,-53 905,-269 220,74 136,212 794,181 436,-21 1471,-31 1793,-203 353,-189 260,-263 431,-580 158,229 95,315 466,507 275,141 616,109 931,87 604,-42 987,-380 1098,-939 154,246 38,639 613,813 294,88 1647,64 2056,7 415,-57 30,-110 579,-19 210,36 457,17 663,-23 319,-63 283,-129 458,-297 198,129 207,231 533,301 623,135 804,-142 1019,-79 562,166 435,123 1163,128 240,2 608,38 827,-3 213,-40 135,-85 345,-6 571,215 1057,105 1325,-444 57,-117 114,-251 230,19 248,583 721,710 1364,520 258,-76 953,407 1421,-161l157 -168c239,559 929,738 1534,398 532,310 614,290 1397,283 496,-5 985,-129 1317,-368 1094,-789 1240,-2643 684,-3813 -107,-226 -189,-328 -316,-514 -357,-520 -1061,-762 -1724,-846 -527,-67 -1036,-201 -1345,202l-347 -139c-912,-108 -829,170 -1104,388l-104 -146c-452,-534 -1679,-574 -1757,430 -157,-58 -54,48 -134,-125 -87,-188 -75,-652 -797,-784 -654,-120 -1123,67 -1354,477 -224,399 -536,2588 -714,2943l-544 -64c-58,-211 -16,-1350 -16,-1668 -1,-839 97,-904 -193,-1508 574,-625 197,-236 912,-331 404,-54 590,-313 815,-555 170,-184 852,231 1079,264 619,89 505,-214 1110,-131 330,45 192,95 429,251 146,96 285,165 488,182 450,37 698,-83 974,-371l739 216c303,158 352,197 763,169 319,-106 682,-720 -124,-1412l-161 -168c147,-326 147,-684 -33,-993 -253,-434 -536,-414 -681,-553 336,-1377 -1072,-1715 -1666,-1238 -288,231 -323,319 -437,728l-216 35c-140,-189 -129,-895 -1055,-1000l-4 -3390c85,-145 8,-16 186,-82 93,-33 135,-48 135,-179 0,-132 -133,-290 -202,-412l-1064 -1841c-370,-653 -522,-93 -772,299 -146,229 -1134,1853 -1088,1995 92,159 138,154 354,152l2 1375 -817 -3 -15 -625c203,-202 237,-135 236,-527 -1,-264 0,-528 0,-793 -1,-750 159,-928 -633,-914l-14 -1507c243,-4 626,79 646,-221 12,-171 -576,-944 -699,-1108l-1140 -1575c-353,-514 -672,-728 -625,-1134 556,-66 1044,170 1566,-95 263,-134 937,-607 812,-978 -271,-120 -432,171 -1197,-85 -476,-160 -576,-235 -1130,-306 -89,-531 -595,-280 -487,36 103,301 59,795 61,1175 3,771 -23,552 -517,1284 -89,132 -176,258 -260,380l-1532 2127c-82,108 -155,300 -20,432 124,122 390,69 563,67l-2 1507c-887,-10 -662,66 -678,1632 -4,351 -29,422 203,583z"/>
   <path class="fil0" d="M5314 2487c-164,-18 -204,-99 -313,-188 -324,-263 -667,-440 -1142,-376 -4,359 360,576 621,712 58,284 190,359 690,408 2,194 52,438 -9,567 -226,472 121,809 503,1009 142,76 97,3 97,194 -750,158 -924,-319 -1297,40 -198,-33 -388,-98 -592,-142 -403,-86 -281,38 -535,-217 -159,-160 -722,-634 -949,-445 -239,417 122,608 307,828 -216,81 -321,96 -290,362 372,210 606,-2 933,85 274,73 518,180 827,252l43 81c47,77 80,124 191,154 144,39 277,12 426,22 -251,211 -649,429 -1018,571 -257,99 -869,170 -713,480 55,109 161,99 265,135 -95,155 -280,378 -401,498 -390,386 -434,367 -842,554 -221,101 -145,-47 -398,7 -229,48 -642,801 -726,1135 -66,262 -14,608 260,586 188,-14 359,-299 484,-451 102,-124 154,-116 238,-215 53,-63 118,-199 190,-288 492,-63 706,-97 1151,-251 128,-44 806,-356 866,-492 -42,331 -618,799 -748,832 -134,34 -527,-114 -642,453 -60,295 -470,1109 -115,1316 384,225 747,-725 779,-764 116,-142 174,-25 202,-325 364,-113 699,-275 978,-456 400,-259 573,-538 778,-704 101,389 330,250 432,-52 181,-535 -7,-577 317,-886 313,-299 539,-912 640,-1042 174,91 644,332 797,70 5,-8 8,-18 12,-27l59 -112c512,-6 938,-193 1135,-203 211,-11 365,87 593,-13 295,-130 143,-250 36,-411 177,-67 461,-303 471,-526 -187,-280 -486,-131 -724,1 -300,168 -295,289 -706,317 -1041,73 -498,36 -838,-68 -251,-76 -666,-25 -743,-278 370,-72 773,52 1097,-595 38,-77 56,-162 87,-212 61,-96 71,-51 153,-141 12,-453 -297,-77 -112,-690 131,-435 241,-295 139,-763 376,-238 479,-780 -119,-615 -824,227 -643,-267 -2232,-520 -691,-110 -576,663 -593,799z"/>
   <path class="fil1" d="M2399 19910c-266,-210 -735,-1684 -974,-1888 -254,-219 -864,-120 -884,351 -28,686 3,2085 10,2831 4,330 -144,1046 296,1088 895,87 486,-752 573,-2231 121,87 394,746 502,930 411,706 307,1223 948,1148 286,-33 361,-145 379,-333l-7 -2827c-4,-330 96,-1062 -194,-1189 -168,-73 -474,-38 -586,90 -132,149 -67,1781 -63,2030z"/>
   <path class="fil2" d="M22264 19811c-188,-279 -625,-1615 -849,-1980 -168,-274 -848,-402 -908,102 -46,382 -16,986 -9,1385 8,478 16,956 8,1433 -9,512 -106,1091 197,1180 983,290 514,-863 641,-2102 92,38 532,1107 615,1304 209,496 252,859 567,903 164,24 323,13 485,-12 194,-252 126,-755 128,-1159l11 -2565c2,-520 -111,-675 -695,-557 -211,245 -151,555 -150,972 1,159 24,977 -41,1096z"/>
   <path class="fil3" d="M24498 18605c381,-53 728,192 894,376 400,442 531,2538 -918,2337l24 -2713zm2003 1845c103,-985 -140,-2166 -1093,-2577 -266,-114 -1259,-355 -1572,-260 -248,76 -189,468 -190,763l-4 2790c-3,908 -126,1017 847,1016 1218,0 1881,-489 2012,-1732z"/>
   <path class="fil4" d="M13051 19327c-50,-180 -31,-725 -24,-956 5,-221 47,-213 292,-178 156,21 246,49 350,142 445,396 -29,1203 -618,992zm1005 646c521,-173 960,-1350 305,-2218 -364,-484 -1636,-474 -1964,-381 -228,65 -219,233 -219,510 0,1043 -13,2087 -13,3131 0,218 -57,572 110,672 137,82 568,63 670,-34 188,-178 23,-1124 121,-1430 236,-77 228,128 309,331 317,784 303,1152 857,1163 918,17 -19,-946 -176,-1744z"/>
   <path class="fil4" d="M19033 20234c-670,37 -599,16 -491,-562 48,-258 113,-821 215,-1012 130,139 281,1471 276,1574zm-1022 1553c258,-182 134,-547 255,-733 68,-103 224,-69 381,-60 82,4 394,9 449,23 143,38 71,-57 149,344 20,100 68,309 110,379 97,162 586,209 727,75 198,-187 -141,-1295 -199,-1593 -100,-514 -223,-1040 -318,-1558 -158,-865 -136,-1165 -731,-1191 -782,-35 -714,335 -859,1021 -106,501 -694,2845 -643,3177 223,138 354,192 679,116z"/>
   <path class="fil5" d="M11475 12602c494,-97 371,-71 869,-57 -38,-878 -96,-1928 988,-2117 520,-90 898,176 1108,421 332,387 261,729 277,1263 385,-102 424,-118 845,-64l-7 -2511 -4068 -4 -12 3069z"/>
   <path class="fil3" d="M7753 20725c-67,-58 -24,2 -74,-96l-545 -2362c-63,-279 -70,-616 -336,-684 -326,-85 -653,14 -620,367l572 2478c176,647 195,1340 620,1421 259,49 722,22 905,-115 205,-155 240,-393 304,-710 121,-593 636,-3083 541,-3498 -388,-120 -702,-110 -801,252l-566 2947z"/>
   <path class="fil5" d="M22986 17226c209,-127 434,-192 592,-363 -411,28 -460,-11 -763,-169l-739 -216c-276,288 -524,408 -974,371 -203,-17 -342,-86 -488,-182 -237,-156 -99,-206 -429,-251 -605,-83 -491,220 -1110,131 -227,-33 -909,-448 -1079,-264 -225,242 -411,501 -815,555 -715,95 -338,-294 -912,331 290,604 192,669 193,1508 0,318 -42,1457 16,1668l544 64c178,-355 490,-2544 714,-2943 231,-410 700,-597 1354,-477 722,132 710,596 797,784 80,173 -23,67 134,125 78,-1004 1305,-964 1757,-430l104 146c275,-218 192,-496 1104,-388z"/>
   <path class="fil4" d="M10529 19142c-63,-125 -101,-734 52,-804 82,-38 741,-23 889,-30 344,-17 350,-194 340,-537 -11,-359 -99,-397 -442,-398 -1999,-4 -1745,-280 -1759,1757 -20,2907 -204,2641 927,2632 1076,-9 1320,111 1293,-483 -17,-370 -94,-447 -462,-440 -264,4 -628,54 -851,-28 -61,-171 -64,-522 -3,-724 284,-89 625,14 919,-67 117,-161 178,-621 5,-772 -212,-185 -671,18 -908,-106z"/>
   <path class="fil4" d="M4719 19401c-35,-142 -110,-718 57,-785 109,-43 649,-37 815,-66 274,-49 278,-319 246,-604 -53,-474 -312,-314 -1348,-230 -261,21 -578,-16 -663,205 -52,136 -9,3077 -6,3471 2,335 -56,583 269,636 208,34 611,-16 828,-30 820,-54 1185,46 1107,-623 -98,-824 -1255,144 -1326,-475 -12,-99 -26,-488 35,-557 206,-182 650,-1 900,-158 179,-112 113,-630 0,-783 -299,-68 -659,68 -914,-1z"/>
   <path class="fil2" d="M11420 5421l4195 9c-20,-165 -867,-1283 -1020,-1484 -187,-248 -338,-477 -521,-725 -155,-210 -395,-558 -559,-723l-2095 2923z"/>
   <path class="fil2" d="M8867 11289c-127,-209 -98,-395 -91,-721 6,-253 133,-452 397,-333 208,93 141,395 143,676 3,347 -84,416 -449,378zm-681 1758c530,-36 506,-74 1000,61 158,-750 635,-800 698,-917 35,-288 44,-2681 -6,-2884l-1666 -2c-69,300 -40,3241 -26,3742z"/>
   <path class="fil2" d="M18198 10645c-102,88 -316,160 -439,18 -50,-57 -253,-1380 463,-885 33,213 63,703 -24,867zm-1086 1077c350,53 547,75 781,277 312,269 221,331 406,672 347,-376 325,-246 543,-405l5 -3461 -1723 2 -12 2915z"/>
   <path class="fil3" d="M15975 20817c-68,-301 -25,-1244 -24,-1612 1,-1406 218,-1875 -552,-1818 -274,21 -329,193 -334,459 -9,526 2,1058 -3,1586 -23,2619 -163,2280 906,2302 849,17 1074,165 1075,-417 1,-761 -410,-274 -1068,-500z"/>
   <path class="fil5" d="M13785 8049c-252,3 -312,-74 -548,11l-12 318c-213,59 -1038,72 -1188,-21l-40 -92c-2,-11 -5,-22 -8,-34l4 -512 -738 -15 -20 1469 4543 -7 8 -1458 -695 -1c5,222 19,491 -30,677 -172,48 -1056,46 -1240,-4l-36 -331z"/>
   <path class="fil3" d="M12348 7578c58,122 38,270 41,428l454 -1c-33,-689 -109,-1537 672,-1536 917,0 612,1163 690,1558l501 2c43,-382 -75,-431 159,-701l257 -16 13 -1495 -3206 -8 -2 1506c265,2 403,22 421,263z"/>
   <path class="fil3" d="M1890 16290c14,134 23,-19 -46,36l18 -94c42,52 20,-22 28,58zm-1327 -1896c59,121 -4,35 -21,71 -98,-44 -75,47 -53,-101 94,6 47,-26 74,30zm2176 2477c70,25 104,41 152,60 15,6 68,25 75,29 53,24 55,29 68,39 47,-60 -9,-1 64,-37 115,-106 60,-69 72,-135 13,-68 24,-99 86,-171 -71,-148 -98,-88 -87,-250l-21 -54c-984,89 -2388,-1336 -2476,-2726 -101,-1604 476,-2086 581,-2559 -283,-6 -817,1214 -885,1439 -506,1667 59,3256 1494,4027 345,185 704,256 877,338z"/>
   <path class="fil0" d="M24474 21318c1449,201 1318,-1895 918,-2337 -166,-184 -513,-429 -894,-376l-24 2713z"/>
   <path class="fil1" d="M16881 8434l2135 7c-231,-452 -780,-1322 -1073,-1855 -72,165 -176,310 -261,454l-801 1394z"/>
   <path class="fil2" d="M12414 14327c-402,128 -703,487 -541,1016 106,349 554,637 990,493 1009,-334 502,-1811 -449,-1509z"/>
   <path class="fil5" d="M10507 13912c-947,220 -565,1801 490,1490 860,-254 629,-1749 -490,-1490z"/>
   <path class="fil3" d="M14432 13023c139,205 367,282 392,824 635,9 482,292 966,-97 228,-183 372,-588 169,-950 -348,-618 -1329,-561 -1527,223z"/>
   <path class="fil3" d="M19044 14723c-980,302 -549,1761 443,1441 973,-313 503,-1733 -443,-1441z"/>
   <path class="fil2" d="M16947 13706c289,-201 130,-341 968,-467 72,-393 29,-683 -195,-915 -209,-217 -616,-328 -961,-133 -644,364 -415,1392 188,1515z"/>
   <path class="fil1" d="M7977 8934l2145 4c-298,-491 -631,-936 -941,-1392 -52,-77 -63,-123 -116,-196 -40,44 -1035,1430 -1088,1584z"/>
   <path class="fil3" d="M8988 14893c-953,381 -433,1666 504,1382 307,-94 610,-505 442,-921 -124,-310 -470,-651 -946,-461z"/>
   <path class="fil3" d="M16839 15046c-903,256 -493,1736 457,1376 291,-111 615,-479 454,-920 -104,-284 -486,-576 -911,-456z"/>
   <path class="fil1" d="M21113 15084c-974,262 -638,1629 282,1405 351,-85 617,-386 553,-855 -49,-353 -415,-662 -835,-550z"/>
   <path class="fil3" d="M8423 14822c121,-47 221,-160 401,-234 212,-86 361,-51 562,-107 112,-369 102,-607 -132,-858 -187,-200 -533,-356 -884,-206 -248,106 -500,377 -484,736 10,245 203,238 537,669z"/>
   <path class="fil3" d="M12942 13963c252,194 400,143 627,513 266,434 562,-178 626,-247 122,-133 323,-192 280,-475 -136,-918 -1659,-886 -1533,209z"/>
   <path class="fil2" d="M14808 14224c-1025,322 -466,1555 316,1391 909,-190 606,-1680 -316,-1391z"/>
   <path class="fil2" d="M20379 15120c109,-34 233,-186 344,-246 144,-79 252,-110 418,-181 74,-422 130,-660 -154,-923 -689,-638 -1614,377 -1180,727 603,485 369,475 572,623z"/>
   <path class="fil1" d="M18431 13428c377,222 393,588 477,745 638,29 451,-202 683,-504 93,-122 509,-249 139,-755 -271,-369 -1219,-588 -1299,514z"/>
   <path class="fil1" d="M7329 14596c-896,222 -641,1520 296,1350 838,-152 575,-1566 -296,-1350z"/>
   <path class="fil2" d="M9857 13899c296,-96 269,-331 1012,-362 36,-154 60,-271 123,-405 78,-167 89,-201 -53,-362 -475,-538 -1218,-276 -1359,307 -86,358 76,704 277,822z"/>
   <path class="fil5" d="M17220 13879c32,216 229,292 190,867 109,55 256,136 354,212 130,100 193,136 390,24 805,-462 249,-1713 -622,-1342 -165,70 -188,123 -312,239z"/>
   <path class="fil5" d="M21552 14756c304,141 701,379 736,769 341,-46 577,-152 689,-432 394,-987 -1183,-1522 -1425,-337z"/>
   <path class="fil3" d="M10287 12116c379,-12 521,85 783,244 98,-132 30,-1510 40,-1795l-844 -4 21 1555z"/>
   <path class="fil1" d="M11224 13621c275,92 501,356 605,635 145,-115 489,-253 735,-295 -17,-274 127,-594 97,-689 -163,-512 -1344,-673 -1437,349z"/>
   <path class="fil3" d="M20847 13285c122,113 271,173 403,297 156,148 175,321 298,456 114,-53 186,-141 319,-209 156,-79 271,-43 353,-173 166,-268 30,-611 -117,-776 -402,-450 -1232,-231 -1256,405z"/>
   <path class="fil3" d="M15919 12245l190 127c186,-409 376,-427 635,-596l13 -1219 -840 -8 2 1696z"/>
   <path class="fil1" d="M15765 14190c449,605 172,935 239,1136 159,17 89,-198 405,-432 291,-217 520,-168 659,-252 10,-184 -20,-346 -109,-466l-146 -152c-244,-209 -734,-232 -1048,166z"/>
   <path class="fil2" d="M12297 16191c-113,-111 -271,-146 -404,-266 -195,-175 -172,-215 -301,-405 -929,-35 -823,1371 258,1121 291,-68 330,-206 447,-450z"/>
   <path class="fil5" d="M14552 15893c-450,-317 -420,-364 -575,-723l-160 -5 -80 153c-194,481 -588,689 -240,1038 263,262 1051,257 1055,-463z"/>
   <path class="fil2" d="M16267 16490c-60,-116 -140,-243 -192,-374 -53,-132 -80,-268 -240,-324 -339,-119 -690,134 -762,374 -207,693 877,1011 1194,324z"/>
   <path class="fil3" d="M14296 1456c560,-41 943,3 1240,-383 -310,-6 -534,-31 -804,-131 -217,-81 -484,-224 -703,-239l-335 -16 0 714c177,-10 496,-51 602,55z"/>
   <path class="fil0" d="M13051 19327c589,211 1063,-596 618,-992 -104,-93 -194,-121 -350,-142 -245,-35 -287,-43 -292,178 -7,231 -26,776 24,956z"/>
   <path class="fil1" d="M13237 8060c236,-85 296,-8 548,-11 24,-208 8,-504 10,-725 3,-245 -2,-468 -282,-465 -427,4 -268,823 -276,1201z"/>
   <path class="fil3" d="M5572 10381c111,184 246,107 359,229 120,129 54,295 230,413 188,-118 102,-288 226,-414 134,-137 311,-38 373,-266 -142,-157 -269,-101 -387,-210 -154,-143 -27,-313 -249,-392 -135,128 -104,312 -200,405 -135,131 -279,15 -352,235z"/>
   <path class="fil3" d="M20027 6911c111,182 267,115 376,240 133,155 26,320 249,399 123,-144 98,-276 190,-401 112,-152 247,-30 371,-238 -107,-200 -256,-100 -374,-235 -98,-112 -74,-326 -234,-392 -244,202 28,304 -407,483 -136,56 -121,28 -171,144z"/>
   <path class="fil3" d="M21354 9476c70,217 236,101 360,248 129,156 -6,320 249,367 115,-104 106,-295 199,-377 155,-137 285,-5 357,-244 -144,-131 -248,-92 -365,-185 -150,-120 -39,-238 -229,-361 -212,73 -84,201 -210,340 -105,116 -254,50 -361,212z"/>
   <path class="fil0" d="M19033 20234c5,-103 -146,-1435 -276,-1574 -102,191 -167,754 -215,1012 -108,578 -179,599 491,562z"/>
   <path class="fil0" d="M8867 11289c365,38 452,-31 449,-378 -2,-281 65,-583 -143,-676 -264,-119 -391,80 -397,333 -7,326 -36,512 91,721z"/>
   <path class="fil0" d="M18198 10645c87,-164 57,-654 24,-867 -716,-495 -513,828 -463,885 123,142 337,70 439,-18z"/>
   <path class="fil3" d="M10089 2989c98,141 157,69 270,176 134,128 21,183 177,317 206,-114 1,-230 305,-373 142,-67 86,14 164,-120 -98,-194 -165,-60 -296,-210 -107,-122 -36,-221 -211,-266 -90,125 -54,206 -146,294 -110,106 -174,31 -263,182z"/>
   <path class="fil3" d="M17025 4083c102,149 127,45 241,171 115,128 16,189 171,286 164,-118 62,-159 182,-275 80,-77 193,-60 281,-182 -111,-159 -171,-69 -283,-179 -128,-126 -13,-186 -180,-275 -151,114 -44,140 -156,261 -114,121 -174,8 -256,193z"/>
   <path class="fil3" d="M20991 11062c-457,-61 -452,369 -248,463 258,120 505,-148 248,-463z"/>
   <path class="fil3" d="M1671 12191c88,88 117,61 182,122 66,63 63,135 111,217 170,-116 51,-136 207,-258l115 -81c-92,-154 -93,-39 -191,-158 -64,-79 -32,-121 -120,-207 -70,96 -52,150 -111,216 -90,104 -110,11 -193,149z"/>
   <path class="fil3" d="M1181 13586c196,160 96,-5 231,224l73 93c88,-118 44,-132 116,-202 63,-63 81,-20 172,-115 -89,-88 -104,-47 -176,-111 -127,-113 4,-119 -169,-205 -60,190 -19,151 -162,248l-85 68z"/>
   <path class="fil5" d="M3098 16962l109 75c197,-96 11,-46 182,-100 7,-2 20,-5 27,-7 8,-3 23,-9 30,-11 8,-3 23,-8 33,-14 -85,-58 147,-110 -162,-45 60,-42 11,39 84,-78 32,-52 36,-79 48,-143 21,-104 7,-110 -41,-219l-239 -14c-11,162 16,102 87,250 -62,72 -73,103 -86,171 -12,66 43,29 -72,135z"/>
   <path class="fil3" d="M1945 15019c57,52 116,68 152,104 81,81 21,85 105,196 113,-97 35,-89 120,-179 64,-67 82,-27 164,-121 -73,-71 -85,-41 -151,-95 -95,-79 -35,-77 -133,-170l-116 150c-94,87 -55,-4 -141,115z"/>
   <path class="fil3" d="M10014 16240c272,171 99,-1 258,268 182,-232 -30,-116 292,-244 -183,-170 -144,-2 -256,-301 -136,152 -47,195 -294,277z"/>
   <path class="fil3" d="M23280 11541c-65,46 -113,126 -39,236 41,62 155,105 244,52 156,-94 36,-457 -205,-288z"/>
   <path class="fil5" d="M10287 12116l-21 -1555 844 4c-10,285 58,1663 -40,1795l54 55 14 -1866 -884 -12 -17 1465c-12,215 -10,48 50,114z"/>
   <path class="fil3" d="M5921 16716c7,8 18,9 22,22l218 175 95 -106c35,-28 33,-17 69,-44 40,-29 43,-37 52,-47l-253 -229c-81,184 -68,109 -203,229z"/>
   <path class="fil0" d="M2817 17250c95,-125 122,-84 217,-251 -13,-10 -15,-15 -68,-39 -7,-4 -60,-23 -75,-29 -48,-19 -82,-35 -152,-60 -46,142 -85,210 -75,363l153 16z"/>
   <path class="fil3" d="M21044 4786c102,-157 98,-170 4,-315 -377,-51 -356,340 -4,315z"/>
   <path class="fil5" d="M14296 1456c-106,-106 -425,-65 -602,-55l0 -714 335 16c-42,-81 -248,-54 -347,-42 -48,168 -48,604 2,770l612 25z"/>
   <path class="fil1" d="M10262 10155c71,81 316,37 425,38 148,1 291,11 436,-15 16,-147 65,-574 -50,-647 72,181 36,430 28,629l-839 -5z"/>
   <path class="fil4" d="M5193 13638l241 -15c-193,-299 -122,-108 -287,-306 -4,-5 -14,-17 -17,-22 -4,-5 -12,-16 -18,-23l81 366z"/>
   <path class="fil3" d="M808 16491c-39,38 -99,75 -13,159 55,54 121,52 171,1 94,-95 -14,-298 -158,-160z"/>
   <path class="fil4" d="M3034 16999c-95,167 -122,126 -217,251 137,-29 131,-38 245,-90 155,-71 195,-20 145,-123l-109 -75c-73,36 -17,-23 -64,37z"/>
   <path class="fil3" d="M8053 16605l109 -5 91 -148 -140 -98 -91 196c20,30 17,18 31,55z"/>
   <path class="fil5" d="M12843 8005l-454 1c-3,-158 17,-306 -41,-428l8 451 369 29c157,-21 72,-9 118,-53z"/>
   <path class="fil3" d="M6725 16391l107 98 122 -109c-32,-40 -63,-78 -114,-134 -88,57 -75,29 -115,145z"/>
   <path class="fil5" d="M3975 16679c223,170 190,76 249,37 -51,-80 0,-77 -99,-89 -256,-31 -89,15 -150,52z"/>
   <path class="fil3" d="M5036 16791c-121,-14 -124,-5 -198,43 0,0 25,55 55,93 7,9 46,41 51,46 92,-116 71,-22 92,-182z"/>
   <path class="fil3" d="M2700 16000c97,65 69,65 174,0 -34,-193 -174,-161 -174,0z"/>
   <path class="fil4" d="M542 14465c17,-36 80,50 21,-71 -27,-56 20,-24 -74,-30 -22,148 -45,57 53,101z"/>
   <path class="fil5" d="M8162 16600l-109 5c44,176 0,36 69,85l40 -90z"/>
   <path class="fil4" d="M1844 16326c69,-55 60,98 46,-36 -8,-80 14,-6 -28,-58l-18 94z"/>
   <path class="fil4" d="M5391 16943c84,84 31,43 80,-15l-80 15z"/>
   <path class="fil4" d="M4106 16980c8,60 -31,20 35,18 43,-1 -45,-99 -35,-18z"/>
  </g>
 </g>
</svg>
